# xmcd CD database file
#
# Track frame offsets:
#	150
#	18660
#	43810
#	92710
#	127294
#	181610
#	239158
#	258634
#	296525
#	324675
#
# Disc length: 4650 seconds
#
# Revision: 0
# Processed by: cddbd v1.5.2PL0 Copyright (c) Steve Scherf et al.
# Submitted via: CDex 1.70beta2
#
DISCID=9a12280a
DTITLE=Parvati - Yoga In The Nightclub
DYEAR=2012
DGENRE=New Age
TTITLE0=Shanti 
TTITLE1=The Birth Of Laksmimi 
TTITLE2=Sri Gurupaduka Stotram 
TTITLE3=Lokah 
TTITLE4=108 Names Of Parvati Devi 
TTITLE5=Mahishasura Mardidi Stotram 
TTITLE6=Yoga In The Nightclub 
TTITLE7=Natamba's Theme (I Am The Light) 
TTITLE8=Heartbeat 
TTITLE9=Closing Prayers 
EXTD=YEAR: 2012
EXTT0=
EXTT1=
EXTT2=
EXTT3=
EXTT4=
EXTT5=
EXTT6=
EXTT7=
EXTT8=
EXTT9=
PLAYORDER=
